# xmcd
#
# Track frame offsets: 
#        182
#        10582
#        23967
#        36282
#        50597
#        63987
#        73817
#        87475
#        101452
#        112387
#        124915
#        136422
#        149305
#        160962
#        174825
#        189057
#        198757
#        213565
#        227325
#        241425
#        255075
#        269687
#
# Disc length: 3774 seconds
#
# Revision: 5
# Processed by: cddbd v1.5.2PL0 Copyright (c) Steve Scherf et al.
# Submitted via: ExactAudioCopyFreeDBPlugin 1.0
#
DISCID=360ebc16
DTITLE=Jr. Walker and the All Stars - Nothin' But Soul:  The Singles 1
DTITLE=962-1983
DYEAR=1994
DGENRE=Rhythm and Blues
TTITLE0=Twist Lackawanna
TTITLE1=Brainwasher
TTITLE2=Cleo's Mood
TTITLE3=Good Rockin'
TTITLE4=Satan's Blues
TTITLE5=Monkey Jump
TTITLE6=Shotgun
TTITLE7=Hot Cha
TTITLE8=Do the Boomerang
TTITLE9=Shake and Fingerpop
TTITLE10=Cleo's Back
TTITLE11=(I'm a) Road Runner
TTITLE12=Baby You Know You Ain't Right
TTITLE13=How Sweet It Is (To Be Loved By You)
TTITLE14=Nothing But Soul
TTITLE15=Money (That's What I Want) - Pt. 1
TTITLE16=Pucker Up Buttercup
TTITLE17=Shoot Your Shot
TTITLE18=Come See About Me
TTITLE19=Sweet Soul
TTITLE20=Hip City - Pt. II
TTITLE21=Home Cookin'
EXTD=
EXTT0=
EXTT1=
EXTT2=
EXTT3=
EXTT4=
EXTT5=
EXTT6=
EXTT7=
EXTT8=
EXTT9=
EXTT10=
EXTT11=
EXTT12=
EXTT13=
EXTT14=
EXTT15=
EXTT16=
EXTT17=
EXTT18=
EXTT19=
EXTT20=
EXTT21=
PLAYORDER=
